<mxfile host="Electron" modified="2024-04-02T00:22:34.026Z" agent="Mozilla/5.0 (Windows NT 10.0; Win64; x64) AppleWebKit/537.36 (KHTML, like Gecko) draw.io/24.1.0 Chrome/120.0.6099.109 Electron/28.1.0 Safari/537.36" etag="0zz6qJ7PNhYpCODesj5C" version="24.1.0" type="device">
  <diagram name="Página-1" id="H8YQ3YC_YiRfGJZsWkPt">
    <mxGraphModel dx="1420" dy="830" grid="1" gridSize="10" guides="1" tooltips="1" connect="1" arrows="1" fold="1" page="1" pageScale="1" pageWidth="827" pageHeight="1169" background="#CCE5FF" math="0" shadow="0">
      <root>
        <mxCell id="0" />
        <mxCell id="1" parent="0" />
        <mxCell id="4KukT8YHLLU0cKSQVhg3-1" value="&lt;p style=&quot;line-height: 100%;&quot;&gt;&lt;b style=&quot;font-size: 16px;&quot;&gt;&lt;font style=&quot;font-size: 16px;&quot; color=&quot;#000000&quot; face=&quot;Comic Sans MS&quot;&gt;14&lt;br&gt;&lt;br&gt;Hacer un programa para ingresar el importe de una compra y el descuento a aplicar. Listar por pantalla, el importe sin descuento, el descuento aplicado y el importe total a cobrar.&lt;br&gt;&lt;br&gt;Ejemplo: se ingresa importe 4500, descuento 40; se deberá mostrar&lt;br&gt;&lt;br&gt;Importe: 4500, Descuento: 1800, total: 2700.&lt;/font&gt;&lt;/b&gt;&lt;/p&gt;" style="text;whiteSpace=wrap;html=1;fontFamily=Architects Daughter;fontSource=https%3A%2F%2Ffonts.googleapis.com%2Fcss%3Ffamily%3DArchitects%2BDaughter;" vertex="1" parent="1">
          <mxGeometry x="70" width="660" height="160" as="geometry" />
        </mxCell>
        <mxCell id="4KukT8YHLLU0cKSQVhg3-26" value="" style="line;strokeWidth=2;direction=south;html=1;hachureGap=4;fontFamily=Architects Daughter;fontSource=https://fonts.googleapis.com/css?family=Architects+Daughter;strokeColor=#000000;container=0;" vertex="1" parent="1">
          <mxGeometry x="318.5" y="310" width="10" height="40" as="geometry" />
        </mxCell>
        <mxCell id="4KukT8YHLLU0cKSQVhg3-27" value="" style="line;strokeWidth=2;direction=south;html=1;hachureGap=4;fontFamily=Architects Daughter;fontSource=https://fonts.googleapis.com/css?family=Architects+Daughter;strokeColor=#000000;container=0;" vertex="1" parent="1">
          <mxGeometry x="318.5" y="400" width="10" height="40" as="geometry" />
        </mxCell>
        <mxCell id="4KukT8YHLLU0cKSQVhg3-30" value="" style="line;strokeWidth=2;direction=south;html=1;hachureGap=4;fontFamily=Architects Daughter;fontSource=https://fonts.googleapis.com/css?family=Architects+Daughter;strokeColor=#000000;container=0;" vertex="1" parent="1">
          <mxGeometry x="318.51" y="490" width="10" height="40" as="geometry" />
        </mxCell>
        <mxCell id="4KukT8YHLLU0cKSQVhg3-28" value="" style="line;strokeWidth=2;direction=south;html=1;hachureGap=4;fontFamily=Architects Daughter;fontSource=https://fonts.googleapis.com/css?family=Architects+Daughter;strokeColor=#000000;container=0;" vertex="1" parent="1">
          <mxGeometry x="318.5" y="570" width="10" height="50" as="geometry" />
        </mxCell>
        <mxCell id="4KukT8YHLLU0cKSQVhg3-2" value="" style="strokeWidth=2;html=1;shape=mxgraph.flowchart.start_2;whiteSpace=wrap;rounded=0;labelBackgroundColor=none;strokeColor=#000000;align=center;verticalAlign=middle;fontFamily=Helvetica;fontSize=12;fontColor=default;fillColor=#d5e8d4;aspect=fixed;container=0;" vertex="1" parent="1">
          <mxGeometry x="307" y="200" width="33" height="40" as="geometry" />
        </mxCell>
        <mxCell id="4KukT8YHLLU0cKSQVhg3-4" value="&lt;font color=&quot;#000000&quot; size=&quot;1&quot; face=&quot;Comic Sans MS&quot;&gt;&lt;b style=&quot;font-size: 17px;&quot;&gt;I&lt;/b&gt;&lt;/font&gt;" style="text;strokeColor=none;align=center;fillColor=none;html=1;verticalAlign=middle;whiteSpace=wrap;rounded=0;fontFamily=Architects Daughter;fontSource=https%3A%2F%2Ffonts.googleapis.com%2Fcss%3Ffamily%3DArchitects%2BDaughter;aspect=fixed;container=0;" vertex="1" parent="1">
          <mxGeometry x="313.5" y="205" width="20" height="30" as="geometry" />
        </mxCell>
        <mxCell id="4KukT8YHLLU0cKSQVhg3-3" value="" style="strokeWidth=2;html=1;shape=mxgraph.flowchart.start_2;whiteSpace=wrap;rounded=0;labelBackgroundColor=none;strokeColor=#000000;align=center;verticalAlign=middle;fontFamily=Helvetica;fontSize=12;fontColor=default;fillColor=#d5e8d4;aspect=fixed;container=0;" vertex="1" parent="1">
          <mxGeometry x="307" y="620" width="33" height="40" as="geometry" />
        </mxCell>
        <mxCell id="4KukT8YHLLU0cKSQVhg3-5" value="&lt;b&gt;&lt;font color=&quot;#000000&quot; style=&quot;font-size: 17px;&quot; face=&quot;Comic Sans MS&quot;&gt;F&lt;/font&gt;&lt;/b&gt;" style="text;strokeColor=none;align=center;fillColor=none;html=1;verticalAlign=middle;whiteSpace=wrap;rounded=0;fontFamily=Architects Daughter;fontSource=https://fonts.googleapis.com/css?family=Architects+Daughter;aspect=fixed;container=0;" vertex="1" parent="1">
          <mxGeometry x="313.5" y="625" width="20" height="30" as="geometry" />
        </mxCell>
        <mxCell id="4KukT8YHLLU0cKSQVhg3-10" value="" style="shape=trapezoid;perimeter=trapezoidPerimeter;whiteSpace=wrap;html=1;fixedSize=1;rounded=0;labelBackgroundColor=none;strokeColor=#121211;strokeWidth=2;align=center;verticalAlign=middle;fontFamily=Helvetica;fontSize=12;fontColor=default;fillColor=#d5e8d4;direction=west;container=0;" vertex="1" parent="1">
          <mxGeometry x="230.25" y="270" width="186.5" height="40" as="geometry">
            <mxRectangle x="-1020" y="-650" width="50" height="40" as="alternateBounds" />
          </mxGeometry>
        </mxCell>
        <mxCell id="4KukT8YHLLU0cKSQVhg3-11" value="&lt;b&gt;&lt;font color=&quot;#000000&quot; face=&quot;Comic Sans MS&quot; style=&quot;font-size: 16px;&quot;&gt;importe, descuento&lt;/font&gt;&lt;/b&gt;" style="text;strokeColor=none;align=center;fillColor=none;html=1;verticalAlign=middle;whiteSpace=wrap;rounded=0;fontFamily=Architects Daughter;fontSource=https://fonts.googleapis.com/css?family=Architects+Daughter;container=0;" vertex="1" parent="1">
          <mxGeometry x="243.5" y="275" width="160" height="30" as="geometry" />
        </mxCell>
        <mxCell id="4KukT8YHLLU0cKSQVhg3-29" value="" style="line;strokeWidth=2;direction=south;html=1;hachureGap=4;fontFamily=Architects Daughter;fontSource=https://fonts.googleapis.com/css?family=Architects+Daughter;strokeColor=#000000;container=0;" vertex="1" parent="1">
          <mxGeometry x="318.5" y="240" width="10" height="30" as="geometry" />
        </mxCell>
        <mxCell id="4KukT8YHLLU0cKSQVhg3-15" value="" style="rounded=0;whiteSpace=wrap;html=1;labelBackgroundColor=none;strokeColor=#0f100e;strokeWidth=2;align=center;verticalAlign=middle;fontFamily=Helvetica;fontSize=12;fontColor=default;fillColor=#d5e8d4;container=0;" vertex="1" parent="1">
          <mxGeometry x="158.5" y="350" width="330" height="50" as="geometry" />
        </mxCell>
        <mxCell id="4KukT8YHLLU0cKSQVhg3-18" value="&lt;font color=&quot;#000000&quot; size=&quot;1&quot; face=&quot;Comic Sans MS&quot;&gt;&lt;b style=&quot;font-size: 16px;&quot;&gt;descuento = importe * descuento / 100&lt;/b&gt;&lt;/font&gt;" style="text;strokeColor=none;align=center;fillColor=none;html=1;verticalAlign=middle;whiteSpace=wrap;rounded=0;fontFamily=Architects Daughter;fontSource=https://fonts.googleapis.com/css?family=Architects+Daughter;container=0;" vertex="1" parent="1">
          <mxGeometry x="165.25" y="355" width="316.5" height="40" as="geometry" />
        </mxCell>
        <mxCell id="4KukT8YHLLU0cKSQVhg3-16" value="" style="rounded=0;whiteSpace=wrap;html=1;labelBackgroundColor=none;strokeColor=#0f100e;strokeWidth=2;align=center;verticalAlign=middle;fontFamily=Helvetica;fontSize=12;fontColor=default;fillColor=#d5e8d4;container=0;" vertex="1" parent="1">
          <mxGeometry x="158.5" y="440" width="330" height="50" as="geometry" />
        </mxCell>
        <mxCell id="4KukT8YHLLU0cKSQVhg3-20" value="&lt;b&gt;&lt;font color=&quot;#000000&quot; face=&quot;Comic Sans MS&quot; style=&quot;font-size: 16px;&quot;&gt;importe_final = importe - descuento&lt;/font&gt;&lt;/b&gt;" style="text;strokeColor=none;align=center;fillColor=none;html=1;verticalAlign=middle;whiteSpace=wrap;rounded=0;fontFamily=Architects Daughter;fontSource=https://fonts.googleapis.com/css?family=Architects+Daughter;container=0;" vertex="1" parent="1">
          <mxGeometry x="177.75" y="450" width="291.5" height="30" as="geometry" />
        </mxCell>
        <mxCell id="4KukT8YHLLU0cKSQVhg3-17" value="" style="shape=trapezoid;perimeter=trapezoidPerimeter;whiteSpace=wrap;html=1;fixedSize=1;rounded=0;labelBackgroundColor=none;strokeColor=#0F140C;strokeWidth=2;align=center;verticalAlign=middle;fontFamily=Helvetica;fontSize=12;fontColor=default;fillColor=#d5e8d4;container=0;" vertex="1" parent="1">
          <mxGeometry x="166.38" y="530" width="314.25" height="40" as="geometry" />
        </mxCell>
        <mxCell id="4KukT8YHLLU0cKSQVhg3-22" value="&lt;b&gt;&lt;font style=&quot;font-size: 16px;&quot; color=&quot;#000000&quot; face=&quot;Comic Sans MS&quot;&gt;importe, descuento, importe_final&lt;/font&gt;&lt;/b&gt;" style="text;strokeColor=none;align=center;fillColor=none;html=1;verticalAlign=middle;whiteSpace=wrap;rounded=0;fontFamily=Architects Daughter;fontSource=https%3A%2F%2Ffonts.googleapis.com%2Fcss%3Ffamily%3DArchitects%2BDaughter;container=0;" vertex="1" parent="1">
          <mxGeometry x="188.51" y="535" width="270" height="30" as="geometry" />
        </mxCell>
      </root>
    </mxGraphModel>
  </diagram>
</mxfile>
